<svg width="9" height="10" viewBox="0 0 9 10" fill="none" xmlns="http://www.w3.org/2000/svg">
<mask id="path-1-inside-1_1_972" fill="white">
<path fill-rule="evenodd" clip-rule="evenodd" d="M3.48636 5.76372H4.43581H4.43591C4.8197 5.76372 5.20348 5.76372 5.60746 5.72525C7.10234 5.64832 8.29419 4.43655 8.33459 2.9555C8.3548 1.43598 7.18315 0.108807 5.68827 0.0318693C4.73883 -0.00659947 3.80958 -0.00660064 2.81973 0.0126338C2.37531 0.0318682 1.93089 0.0318693 1.46627 0.0318693H1.26426V3.91719V4.45576H0.334961V5.74447H1.26426V6.26387H0.354883V7.55257H1.26426V9.34128H2.71873V7.55257H4.96071V6.26387H2.71873V5.76372H3.48636ZM2.71873 4.45576H3.06209V4.47502H3.34497H3.68837H3.76918C4.61762 4.49425 5.20345 4.47502 5.54686 4.45578C6.3549 4.37884 7.00134 3.6864 6.98114 2.87856C6.98114 2.03224 6.29431 1.33981 5.42566 1.30134C4.94266 1.2726 4.45965 1.27607 3.9598 1.27966C3.79067 1.28088 3.61961 1.28211 3.44597 1.28211H2.71873V3.91719V4.45576Z"/>
</mask>
<path fill-rule="evenodd" clip-rule="evenodd" d="M3.48636 5.76372H4.43581H4.43591C4.8197 5.76372 5.20348 5.76372 5.60746 5.72525C7.10234 5.64832 8.29419 4.43655 8.33459 2.9555C8.3548 1.43598 7.18315 0.108807 5.68827 0.0318693C4.73883 -0.00659947 3.80958 -0.00660064 2.81973 0.0126338C2.37531 0.0318682 1.93089 0.0318693 1.46627 0.0318693H1.26426V3.91719V4.45576H0.334961V5.74447H1.26426V6.26387H0.354883V7.55257H1.26426V9.34128H2.71873V7.55257H4.96071V6.26387H2.71873V5.76372H3.48636ZM2.71873 4.45576H3.06209V4.47502H3.34497H3.68837H3.76918C4.61762 4.49425 5.20345 4.47502 5.54686 4.45578C6.3549 4.37884 7.00134 3.6864 6.98114 2.87856C6.98114 2.03224 6.29431 1.33981 5.42566 1.30134C4.94266 1.2726 4.45965 1.27607 3.9598 1.27966C3.79067 1.28088 3.61961 1.28211 3.44597 1.28211H2.71873V3.91719V4.45576Z" fill="#C4C4C4"/>
<path d="M5.60746 5.72525L5.5946 5.47535L5.58377 5.47638L5.60746 5.72525ZM8.33459 2.9555L8.58453 2.96232L8.58457 2.95882L8.33459 2.9555ZM5.68827 0.0318693L5.70112 -0.217815L5.69839 -0.217926L5.68827 0.0318693ZM2.81973 0.0126338L2.81488 -0.23739L2.80892 -0.237132L2.81973 0.0126338ZM1.26426 0.0318693V-0.218131H1.01426V0.0318693H1.26426ZM1.26426 4.45576V4.70576H1.51426V4.45576H1.26426ZM0.334961 4.45576V4.20576H0.0849609V4.45576H0.334961ZM0.334961 5.74447H0.0849609V5.99447H0.334961V5.74447ZM1.26426 5.74447H1.51426V5.49447H1.26426V5.74447ZM1.26426 6.26387V6.51387H1.51426V6.26387H1.26426ZM0.354883 6.26387V6.01387H0.104883V6.26387H0.354883ZM0.354883 7.55257H0.104883V7.80257H0.354883V7.55257ZM1.26426 7.55257H1.51426V7.30257H1.26426V7.55257ZM1.26426 9.34128H1.01426V9.59128H1.26426V9.34128ZM2.71873 9.34128V9.59128H2.96873V9.34128H2.71873ZM2.71873 7.55257V7.30257H2.46873V7.55257H2.71873ZM4.96071 7.55257V7.80257H5.21071V7.55257H4.96071ZM4.96071 6.26387H5.21071V6.01387H4.96071V6.26387ZM2.71873 6.26387H2.46873V6.51387H2.71873V6.26387ZM2.71873 5.76372V5.51372H2.46873V5.76372H2.71873ZM3.06209 4.45576H3.31209V4.20576H3.06209V4.45576ZM2.71873 4.45576H2.46873V4.70576H2.71873V4.45576ZM3.06209 4.47502H2.81209V4.72502H3.06209V4.47502ZM3.76918 4.47502L3.77485 4.22502H3.76918V4.47502ZM5.54686 4.45578L5.56086 4.70558L5.57056 4.70466L5.54686 4.45578ZM6.98114 2.87856H6.73106L6.73122 2.88481L6.98114 2.87856ZM5.42566 1.30134L5.41081 1.55093L5.4146 1.5511L5.42566 1.30134ZM3.9598 1.27966L3.958 1.02967H3.958L3.9598 1.27966ZM2.71873 1.28211V1.03211H2.46873V1.28211H2.71873ZM4.43581 5.51372H3.48636V6.01372H4.43581V5.51372ZM4.43591 5.51372H4.43581V6.01372H4.43591V5.51372ZM5.58377 5.47638C5.19341 5.51355 4.82119 5.51372 4.43591 5.51372V6.01372C4.81821 6.01372 5.21356 6.01389 5.63116 5.97413L5.58377 5.47638ZM8.08469 2.94868C8.04789 4.29745 6.9611 5.40525 5.59461 5.47558L5.62031 5.97492C7.24357 5.89138 8.54049 4.57565 8.5845 2.96232L8.08469 2.94868ZM5.67542 0.281539C7.02641 0.351071 8.10316 1.55708 8.08462 2.95218L8.58457 2.95882C8.60643 1.31489 7.33988 -0.133457 5.70112 -0.2178L5.67542 0.281539ZM2.82459 0.262587C3.81143 0.243411 4.73535 0.243465 5.67815 0.281664L5.69839 -0.217926C4.7423 -0.256664 3.80773 -0.256612 2.81488 -0.237319L2.82459 0.262587ZM1.46627 0.281869C1.92993 0.281869 2.3798 0.281908 2.83054 0.2624L2.80892 -0.237132C2.37083 -0.218172 1.93185 -0.218131 1.46627 -0.218131V0.281869ZM1.26426 0.281869H1.46627V-0.218131H1.26426V0.281869ZM1.51426 3.91719V0.0318693H1.01426V3.91719H1.51426ZM1.51426 4.45576V3.91719H1.01426V4.45576H1.51426ZM0.334961 4.70576H1.26426V4.20576H0.334961V4.70576ZM0.584961 5.74447V4.45576H0.0849609V5.74447H0.584961ZM1.26426 5.49447H0.334961V5.99447H1.26426V5.49447ZM1.51426 6.26387V5.74447H1.01426V6.26387H1.51426ZM0.354883 6.51387H1.26426V6.01387H0.354883V6.51387ZM0.604883 7.55257V6.26387H0.104883V7.55257H0.604883ZM1.26426 7.30257H0.354883V7.80257H1.26426V7.30257ZM1.51426 9.34128V7.55257H1.01426V9.34128H1.51426ZM2.71873 9.09128H1.26426V9.59128H2.71873V9.09128ZM2.46873 7.55257V9.34128H2.96873V7.55257H2.46873ZM4.96071 7.30257H2.71873V7.80257H4.96071V7.30257ZM4.71071 6.26387V7.55257H5.21071V6.26387H4.71071ZM2.71873 6.51387H4.96071V6.01387H2.71873V6.51387ZM2.46873 5.76372V6.26387H2.96873V5.76372H2.46873ZM3.48636 5.51372H2.71873V6.01372H3.48636V5.51372ZM3.06209 4.20576H2.71873V4.70576H3.06209V4.20576ZM3.31209 4.47502V4.45576H2.81209V4.47502H3.31209ZM3.34497 4.22502H3.06209V4.72502H3.34497V4.22502ZM3.68837 4.22502H3.34497V4.72502H3.68837V4.22502ZM3.76918 4.22502H3.68837V4.72502H3.76918V4.22502ZM5.53288 4.20617C5.19613 4.22503 4.61686 4.24417 3.77485 4.22508L3.76352 4.72495C4.61838 4.74433 5.21077 4.725 5.56084 4.70539L5.53288 4.20617ZM6.73122 2.88481C6.74795 3.55392 6.20808 4.14169 5.52317 4.20691L5.57056 4.70466C6.50172 4.61599 7.25473 3.81888 7.23106 2.87231L6.73122 2.88481ZM5.4146 1.5511C6.15707 1.58398 6.73114 2.17336 6.73114 2.87856H7.23114C7.23114 1.89112 6.43154 1.09564 5.43672 1.05159L5.4146 1.5511ZM3.96159 1.52965C4.4629 1.52605 4.93753 1.52273 5.41081 1.5509L5.44051 1.05178C4.94779 1.02246 4.4564 1.02609 3.958 1.02967L3.96159 1.52965ZM3.44597 1.53211C3.62066 1.53211 3.7926 1.53087 3.96159 1.52965L3.958 1.02967C3.78873 1.03088 3.61857 1.03211 3.44597 1.03211V1.53211ZM2.71873 1.53211H3.44597V1.03211H2.71873V1.53211ZM2.96873 3.91719V1.28211H2.46873V3.91719H2.96873ZM2.46873 3.91719V4.45576H2.96873V3.91719H2.46873Z" fill="white" mask="url(#path-1-inside-1_1_972)"/>
</svg>
